<?xml version="1.0" encoding="UTF-8"?>
<!DOCTYPE svg PUBLIC "-//W3C//DTD SVG 1.1//EN" "http://www.w3.org/Graphics/SVG/1.1/DTD/svg11.dtd">
<!-- Creator: CorelDRAW X8 -->
<svg xmlns="http://www.w3.org/2000/svg" xml:space="preserve" width="2in" height="1in" version="1.1" style="shape-rendering:geometricPrecision; text-rendering:geometricPrecision; image-rendering:optimizeQuality; fill-rule:evenodd; clip-rule:evenodd"
viewBox="500 900 2900 1000"
 xmlns:xlink="http://www.w3.org/1999/xlink">
 <defs>
  <style type="text/css">
   <![CDATA[
    .str1 {stroke:white;stroke-width:3}
    .str0 {stroke:white;stroke-width:3}
    .str2 {stroke:#F58634;stroke-width:3}
    .fil1 {fill:white}
    .fil8 {fill:white}
    .fil6 {fill:white}
    .fil9 {fill:#F58634}
    .fil4 {fill:#D76039}
    .fil0 {fill:white;fill-rule:nonzero}
    .fil2 {fill:white;fill-rule:nonzero}
    .fil7 {fill:white;fill-rule:nonzero}
    .fil5 {fill:white;fill-rule:nonzero}
    .fil3 {fill:white;fill-rule:nonzero}
   ]]>
  </style>
   <mask id="id0">
  <linearGradient id="id1" gradientUnits="userSpaceOnUse" x1="2277.04" y1="1685.05" x2="2268.71" y2="1801.71">
   <stop offset="0" style="stop-opacity:1; stop-color:white"/>
   <stop offset="0.482353" style="stop-opacity:101.565; stop-color:white"/>
   <stop offset="0.988235" style="stop-opacity:0; stop-color:white"/>
   <stop offset="1" style="stop-opacity:0.658824; stop-color:white"/>
  </linearGradient>
    <rect style="fill:url(#id1)" x="891" y="1504" width="2028.76" height="93.8465"/>
   </mask>
 </defs>
 <g id="Capa_x0020_1">
  <metadata id="CorelCorpID_0Corel-Layer"/>
  <path class="fil0 str0" d="M1750 1223l0 -55 514 0 0 -69 -514 0 0 -55 514 0 0 -69 -584 0 0 318 584 0 0 -70 -514 0zm581 -248l0 318 70 0 0 -241 443 241 71 0 0 -318 -71 0 0 241 -442 -241 -71 0z"/>
  <polygon class="fil1 str0" points="1543,1293 1613,1293 1613,975 1543,975 "/>
  <path class="fil2" d="M894 1225l0 70 518 0c18,0 33,-6 46,-18 13,-12 20,-30 20,-52l0 -54c0,-22 -7,-39 -20,-52 -13,-12 -28,-19 -46,-19l-423 0c-6,0 -12,-2 -17,-5 -5,-4 -8,-11 -8,-20l0 -5c0,-10 2,-16 7,-19 4,-3 10,-5 18,-5l489 0 0 -70 -518 0c-18,0 -33,6 -46,18 -13,12 -20,30 -20,52l0 54c0,23 7,40 20,52 13,12 28,18 46,18l424 0c7,0 13,2 18,5 4,4 6,10 6,19l0 6c0,9 -3,15 -8,19 -5,4 -11,6 -17,6l-489 0z"/>
  <path class="fil3" d="M912 1417l0 -82 -19 0 0 82 19 0zm227 -64l-108 0 0 64 -18 0 0 -82 134 0c2,0 4,0 6,1 2,1 4,2 6,4 1,1 2,3 3,5 1,2 2,5 2,8l0 64 -18 0 0 -57c0,-2 -1,-4 -2,-5 -2,-1 -3,-2 -5,-2zm143 -18c-2,0 -4,0 -6,1 -2,1 -4,2 -5,4 -2,1 -3,3 -4,5 -1,2 -2,5 -2,8l0 46c0,3 1,6 2,8 1,2 2,4 4,5 1,2 3,3 5,4 2,1 4,1 6,1l117 0c2,0 4,0 6,-1 2,-1 4,-2 6,-4 1,-1 2,-3 3,-5 1,-2 2,-5 2,-8l0 -26 -18 0 0 18c0,3 -1,5 -2,6 -1,1 -3,2 -5,2l-102 0c-1,0 -3,-1 -4,-2 -1,-1 -2,-3 -2,-6l0 -31c0,-2 1,-4 2,-5 1,-1 2,-2 5,-2l126 0 0 -18 -134 0zm253 64l0 -14 133 0 0 -18 -133 0 0 -14 133 0 0 -18 -151 0 0 82 151 0 0 -18 -133 0zm360 -46l-107 0 0 64 -19 0 0 -82 134 0c2,0 4,0 6,1 2,1 4,2 6,4 1,1 3,3 4,5 1,2 1,5 1,8l0 64 -18 0 0 -57c0,-2 -1,-4 -2,-5 -1,-1 -3,-2 -5,-2zm145 64l0 -82 -18 0 0 82 18 0zm119 -18l0 -14 133 0 0 -18 -133 0 0 -14 133 0 0 -18 -151 0 0 82 151 0 0 -18 -133 0zm368 -64l-134 0 0 82 18 0 0 -32 100 0 15 32 18 0 -13 -33c4,-1 7,-3 9,-5 3,-3 4,-7 4,-12l0 -14c0,-3 -1,-5 -2,-8 0,-2 -2,-4 -3,-5 -2,-2 -4,-3 -6,-4 -2,-1 -4,-1 -6,-1zm-116 18l108 0c2,0 4,0 5,1 1,1 2,3 2,5l0 2c0,3 -1,4 -2,5 -1,1 -3,1 -5,1l-108 0 0 -14zm253 64l0 -82 -18 0 0 82 18 0zm252 0l0 -64c0,-3 -1,-5 -1,-8 -1,-2 -3,-4 -4,-5 -2,-2 -4,-3 -6,-4 -2,-1 -4,-1 -6,-1l-117 0c-2,0 -4,0 -6,1 -2,1 -4,2 -5,4 -2,1 -3,3 -4,5 -1,2 -2,5 -2,8l0 64 18 0 0 -32 115 0 0 32 18 0zm-133 -57c0,-2 1,-4 2,-5 1,-1 2,-2 5,-2l102 0c2,0 3,1 4,2 1,1 2,3 2,5l0 7 -115 0 0 -7z"/>
  <polygon class="fil4" style="mask:url(#id0)" points="894,1594 2916,1594 2916,1507 894,1507 "/>
  <path class="fil5 str0" d="M-8076 -4367l-55 0 0 -513 -70 0 0 513 -54 0 0 -513 -70 0 0 584 318 0 0 -584 -69 0 0 513zm-249 -580l318 0 0 -70 -241 0 241 -443 0 -71 -318 0 0 70 242 0 -242 443 0 71z"/>
  <polygon class="fil6 str0" points="-8007,-4160 -8007,-4230 -8325,-4230 -8325,-4160 "/>
  <path class="fil5" d="M-8074 -3511l69 0 0 -518c0,-18 -6,-33 -18,-46 -12,-13 -29,-20 -51,-20l-55 0c-21,0 -38,7 -51,20 -13,13 -19,28 -19,46l0 423c0,7 -2,12 -6,17 -4,6 -10,8 -19,8l-6 0c-9,0 -15,-2 -19,-6 -3,-4 -5,-10 -5,-18l0 -490 -69 0 0 519c0,17 6,32 18,46 12,13 29,19 51,19l55 0c22,0 39,-6 51,-19 12,-14 18,-29 18,-46l0 -424c0,-8 2,-14 6,-18 3,-4 10,-6 19,-6l6 0c8,0 15,2 19,7 4,5 6,11 6,17l0 489z"/>
  <path class="fil7" d="M-7883 -3528l-82 0 0 18 82 0 0 -18zm-64 -228l0 108 64 0 0 18 -82 0 0 -133c0,-2 1,-5 2,-7 0,-2 2,-4 3,-5 2,-2 3,-3 6,-4 2,-1 4,-1 7,-1l64 0 0 18 -56 0c-2,0 -4,0 -6,2 -1,1 -2,2 -2,4zm-18 -143c0,2 1,4 2,6 0,2 2,4 3,6 2,1 3,3 6,4 2,1 4,1 7,1l46 0c3,0 6,0 8,-1 2,-1 4,-3 6,-4 1,-2 2,-4 3,-6 1,-2 1,-4 1,-6l0 -116c0,-3 0,-5 -1,-7 -1,-2 -2,-4 -3,-5 -2,-2 -4,-3 -6,-4 -2,-1 -5,-1 -8,-1l-26 0 0 18 19 0c2,0 4,0 5,2 2,1 2,2 2,4l0 102c0,2 0,3 -2,4 -1,1 -3,2 -5,2l-31 0c-2,0 -4,-1 -6,-1 -1,-1 -2,-3 -2,-5l0 -126 -18 0 0 133zm64 -253l-14 0 0 -133 -18 0 0 133 -14 0 0 -133 -18 0 0 151 82 0 0 -151 -18 0 0 133zm-46 -360l0 108 64 0 0 18 -82 0 0 -134c0,-2 1,-4 2,-6 0,-2 2,-4 3,-5 2,-2 3,-3 6,-4 2,-1 4,-2 7,-2l64 0 0 18 -56 0c-2,0 -4,1 -6,2 -1,2 -2,3 -2,5zm64 -144l-82 0 0 18 82 0 0 -18zm-18 -120l-14 0 0 -132 -18 0 0 132 -14 0 0 -132 -18 0 0 150 82 0 0 -150 -18 0 0 132zm-64 -367l0 133 82 0 0 -18 -32 0 0 -100 32 -14 0 -19 -32 13c-1,-3 -3,-6 -6,-9 -3,-2 -7,-4 -12,-4l-14 0c-2,0 -5,1 -7,2 -2,1 -4,2 -6,4 -1,1 -3,3 -3,5 -1,2 -2,4 -2,7zm18 115l0 -108c0,-2 1,-3 2,-5 1,-1 3,-1 5,-1l2 0c2,0 4,0 4,1 1,2 1,3 1,5l0 108 -14 0zm64 -253l-82 0 0 19 82 0 0 -19zm0 -252l-64 0c-2,0 -5,1 -7,2 -2,1 -4,2 -6,4 -1,1 -3,3 -3,5 -1,2 -2,4 -2,7l0 116c0,2 1,4 2,6 0,2 2,4 3,6 2,1 3,3 6,4 2,1 4,1 7,1l64 0 0 -18 -32 0 0 -114 32 0 0 -19zm-56 133c-2,0 -4,-1 -6,-2 -1,-1 -2,-2 -2,-4l0 -102c0,-2 1,-4 2,-5 2,-1 4,-1 6,-1l6 0 0 114 -6 0z"/>
  <path class="fil8 str1" d="M-8937 -5452c224,625 399,1291 523,1997 -184,-311 -336,-505 -455,-580 -1,-162 -24,-634 -68,-1417z"/>
  <path class="fil9 str2" d="M-8974 -5452c-225,625 -399,1291 -523,1997 184,-311 335,-505 455,-580 1,-162 24,-634 68,-1417z"/>
  <path class="fil5 str0" d="M-2526 -4709l-56 0 0 -514 -69 0 0 514 -55 0 0 -514 -69 0 0 584 318 0 0 -584 -69 0 0 514zm-249 -581l318 0 0 -70 -241 0 241 -443 0 -70 -318 0 0 70 241 0 -241 443 0 70z"/>
  <polygon class="fil6 str0" points="-2457,-4502 -2457,-4572 -2775,-4572 -2775,-4502 "/>
  <path class="fil5" d="M-2525 -3853l70 0 0 -518c0,-18 -6,-33 -18,-46 -12,-13 -30,-20 -52,-20l-54 0c-22,0 -39,7 -52,20 -12,13 -19,28 -19,46l0 423c0,6 -2,12 -5,17 -4,5 -11,8 -19,8l-6 0c-10,0 -16,-2 -19,-7 -3,-4 -5,-10 -5,-18l0 -489 -70 0 0 518c0,18 6,33 18,46 13,13 30,20 52,20l54 0c23,0 40,-7 52,-20 12,-13 18,-28 18,-46l0 -423c0,-8 2,-14 5,-19 4,-4 10,-6 19,-6l6 0c9,0 15,3 19,8 4,5 6,11 6,17l0 489z"/>
  <path class="fil7" d="M-2333 -3871l-82 0 0 19 82 0 0 -19zm-64 -227l0 108 64 0 0 18 -82 0 0 -134c0,-2 0,-4 1,-6 1,-2 2,-4 4,-5 1,-2 3,-3 5,-4 3,-1 5,-2 8,-2l64 0 0 18 -57 0c-2,0 -4,1 -5,2 -1,2 -2,3 -2,5zm-18 -143c0,2 0,4 1,6 1,2 2,4 4,6 1,1 3,2 5,3 3,1 5,2 8,2l46 0c3,0 6,-1 8,-2 2,-1 4,-2 5,-3 2,-2 3,-4 4,-6 1,-2 1,-4 1,-6l0 -117c0,-2 0,-4 -1,-6 -1,-2 -2,-4 -4,-6 -1,-1 -3,-2 -5,-3 -2,-1 -5,-2 -8,-2l-26 0 0 18 18 0c3,0 5,1 6,2 1,2 2,3 2,5l0 102c0,1 -1,3 -2,4 -1,1 -3,2 -6,2l-31 0c-2,0 -4,-1 -5,-2 -1,-1 -2,-2 -2,-5l0 -126 -18 0 0 134zm64 -253l-14 0 0 -133 -18 0 0 133 -14 0 0 -133 -18 0 0 151 82 0 0 -151 -18 0 0 133zm-46 -360l0 108 64 0 0 18 -82 0 0 -134c0,-2 0,-4 1,-6 1,-2 2,-4 4,-6 1,-1 3,-3 5,-4 3,0 5,-1 8,-1l64 0 0 18 -57 0c-2,0 -4,1 -5,2 -1,1 -2,3 -2,5zm64 -145l-82 0 0 19 82 0 0 -19zm-18 -119l-14 0 0 -133 -18 0 0 133 -14 0 0 -133 -18 0 0 151 82 0 0 -151 -18 0 0 133zm-64 -368l0 134 82 0 0 -18 -32 0 0 -100 32 -15 0 -18 -33 13c-1,-4 -2,-7 -5,-9 -3,-3 -7,-4 -12,-4l-14 0c-3,0 -5,1 -8,2 -2,1 -4,2 -5,3 -2,2 -3,4 -4,6 -1,2 -1,4 -1,6zm18 116l0 -108c0,-2 0,-4 1,-5 1,-1 3,-2 5,-2l2 0c3,0 4,1 5,2 1,1 1,3 1,5l0 108 -14 0zm64 -253l-82 0 0 18 82 0 0 -18zm0 -252l-64 0c-3,0 -5,1 -8,2 -2,1 -4,2 -5,3 -2,2 -3,4 -4,6 -1,2 -1,4 -1,6l0 117c0,2 0,4 1,6 1,2 2,4 4,5 1,2 3,3 5,4 3,1 5,2 8,2l64 0 0 -18 -32 0 0 -115 32 0 0 -18zm-57 133c-2,0 -4,-1 -5,-2 -1,-1 -2,-2 -2,-5l0 -102c0,-2 1,-3 2,-4 1,-1 3,-2 5,-2l7 0 0 115 -7 0z"/>
  <path class="fil8 str1" d="M-3249 -6195c285,-102 589,-182 911,-239 -142,84 -230,153 -264,208 -74,0 -290,11 -647,31z"/>
  <path class="fil9 str2" d="M-3249 -6178c285,102 589,182 911,238 -142,-83 -230,-152 -264,-207 -74,-1 -290,-11 -647,-31z"/>
 </g>
</svg>
